<svg width="20" height="20" viewBox="0 0 20 20" fill="none" xmlns="http://www.w3.org/2000/svg">
<path fill-rule="evenodd" clip-rule="evenodd" d="M10 18C8.41776 18 6.87104 17.5308 5.55544 16.6518C4.23985 15.7727 3.21448 14.5233 2.60898 13.0615C2.00347 11.5997 1.84504 9.99112 2.15372 8.43928C2.4624 6.88743 3.22434 5.46197 4.34315 4.34315C5.46197 3.22433 6.88743 2.4624 8.43928 2.15372C9.99113 1.84504 11.5997 2.00346 13.0615 2.60896C14.5233 3.21446 15.7727 4.23985 16.6518 5.55544C17.5308 6.87103 18 8.41775 18 10C18 12.1217 17.1571 14.1566 15.6569 15.6569C14.1566 17.1571 12.1217 18 10 18ZM5.4704 11.804C5.29837 11.6301 5.20188 11.3953 5.20188 11.1507C5.20188 10.906 5.29837 10.6713 5.4704 10.4973L5.94135 10.0291C6.02144 9.94826 6.11693 9.88436 6.22219 9.84116C6.32745 9.79797 6.44032 9.77637 6.55409 9.77764C6.66786 9.77891 6.78021 9.80302 6.88448 9.84854C6.98875 9.89407 7.08281 9.96009 7.16107 10.0427L7.99307 10.9059C8.03274 10.9477 8.08053 10.9811 8.1335 11.0038C8.18648 11.0266 8.24354 11.0384 8.30121 11.0384C8.35888 11.0384 8.41594 11.0266 8.46892 11.0038C8.5219 10.9811 8.56966 10.9477 8.60933 10.9059L12.8493 6.5352C12.9282 6.45204 13.023 6.38568 13.1281 6.34011C13.2333 6.29454 13.3466 6.2707 13.4611 6.27003C13.5757 6.26936 13.6893 6.29186 13.7949 6.33619C13.9006 6.38053 13.9962 6.44577 14.076 6.52801L14.5333 6.9904C14.7012 7.16362 14.795 7.39534 14.795 7.63653C14.795 7.87772 14.7012 8.10945 14.5333 8.28267L8.90427 14.0029C8.82572 14.0842 8.73172 14.1491 8.62779 14.1936C8.52386 14.2381 8.41207 14.2614 8.29901 14.2621C8.18595 14.2629 8.07388 14.241 7.96938 14.1979C7.86487 14.1548 7.77002 14.0912 7.6904 14.0109L5.4704 11.804Z" fill="#00B050"/>
</svg>
