<svg width="24" height="24" viewBox="0 0 24 24" fill="none" xmlns="http://www.w3.org/2000/svg">
<g id="Icons">
<g id="SVGRepo_iconCarrier">
<g id="Group">
<path id="Vector" d="M12 7.5C13.275 7.5 14.25 6.525 14.25 5.25C14.25 3.975 13.275 3 12 3C10.725 3 9.75 3.975 9.75 5.25C9.75 6.525 10.725 7.5 12 7.5Z" fill="black"/>
<path id="Vector_2" d="M12 9.75C10.725 9.75 9.75 10.725 9.75 12C9.75 13.275 10.725 14.25 12 14.25C13.275 14.25 14.25 13.275 14.25 12C14.25 10.725 13.275 9.75 12 9.75Z" fill="black"/>
<path id="Vector_3" d="M12 16.5C10.725 16.5 9.75 17.475 9.75 18.75C9.75 20.025 10.725 21 12 21C13.275 21 14.25 20.025 14.25 18.75C14.25 17.475 13.275 16.5 12 16.5Z" fill="black"/>
</g>
</g>
</g>
</svg>
