<svg width="48" height="48" viewBox="0 0 48 48" fill="none" xmlns="http://www.w3.org/2000/svg">
<path d="M28.3886 44.6067C28.6703 44.5316 29.1117 44.3156 29.3746 44.1372C29.647 43.9587 33.8259 39.8549 38.6622 35.0092C48.7386 24.9234 47.9873 25.8062 47.9873 24.0877C47.9873 23.2331 47.9592 23.0359 47.762 22.6321C47.5742 22.2658 45.6396 20.2656 38.5589 13.1661C33.6193 8.21708 29.4028 4.05692 29.1868 3.92545C28.6985 3.63433 27.9378 3.42773 27.365 3.42773C26.4541 3.42773 25.2051 4.01936 24.6886 4.70489C24.1627 5.39043 23.8904 6.6488 24.0876 7.50337C24.3317 8.57393 24.4069 8.65845 29.8442 14.1521C35.15 19.4955 35.6196 19.9181 36.7746 20.397C37.1785 20.5567 36.6901 20.5661 19.8617 20.613L2.53553 20.66L2.00025 20.9135C1.28655 21.2422 0.704313 21.8057 0.319288 22.51C0.00938877 23.0734 -2.09774e-06 23.1486 -2.09774e-06 24.0877C-2.09774e-06 24.9798 0.0281705 25.1206 0.262942 25.5902C0.741877 26.5199 1.53071 27.1679 2.50736 27.4308C2.92995 27.5435 5.72843 27.5623 20.0495 27.5623L37.0939 27.5623L36.5305 27.8346C36.2206 27.9755 35.7135 28.2948 35.4036 28.5295C35.0937 28.7643 32.5488 31.2529 29.7597 34.0608C25.8718 37.958 24.6135 39.2727 24.435 39.6295C23.5241 41.4608 24.1721 43.5174 25.9376 44.3907C26.6607 44.7476 27.5998 44.8321 28.3886 44.6067Z" fill="black"/>
</svg>
