<svg width="20" height="20" viewBox="0 0 20 20" fill="none" xmlns="http://www.w3.org/2000/svg">
<path fill-rule="evenodd" clip-rule="evenodd" d="M10 2C14.4183 2 18 5.58172 18 10C18 14.4183 14.4183 18 10 18C5.58172 18 2 14.4183 2 10C2 5.58172 5.58172 2 10 2ZM9.91802 13.189C9.2141 13.189 8.64143 13.7617 8.64143 14.4656C8.64143 15.1695 9.2141 15.7422 9.91802 15.7422C10.6219 15.7422 11.1946 15.1695 11.1946 14.4656C11.1946 13.7617 10.6219 13.189 9.91802 13.189ZM11.6138 4.66667H8.22223L9.04821 12.1552H10.7878L11.6138 4.66667Z" fill="#FF0000"/>
</svg>
