<svg width="18" height="18" viewBox="0 0 18 18" fill="none" xmlns="http://www.w3.org/2000/svg">
<path d="M3.5868 3.60317C3.23149 3.79159 3.03768 4.10383 3.01077 4.52375C2.97308 5.14285 2.93001 5.08901 5.09417 7.26394L7.05915 9.23968L5.14263 11.167C3.08075 13.2288 3 13.3257 3 13.8426C3 14.494 3.51143 15 4.16822 15C4.67426 14.9946 4.78193 14.9085 6.83842 12.8574L8.76033 10.9355L10.6876 12.8574C11.7428 13.9125 12.6957 14.817 12.7979 14.8708C12.9218 14.9354 13.1048 14.9677 13.3363 14.9731C14.0308 14.9731 14.4937 14.5101 14.4937 13.8156C14.4883 13.5841 14.456 13.4011 14.3914 13.2773C14.3376 13.175 13.4332 12.2221 12.378 11.167L10.4615 9.23968L12.4265 7.26394C14.5906 5.08901 14.5476 5.14285 14.5099 4.52375C14.483 4.10383 14.2892 3.79159 13.9339 3.60317C13.6485 3.45243 13.1694 3.43628 12.8625 3.56549C12.728 3.61932 12.0173 4.29226 10.7145 5.59506L8.76033 7.5385L6.80612 5.59506C5.50332 4.29226 4.7927 3.61932 4.65811 3.56549C4.35125 3.43628 3.87212 3.45243 3.5868 3.60317Z" fill="black"/>
</svg>
