<svg width="20" height="20" viewBox="0 0 20 20" fill="none" xmlns="http://www.w3.org/2000/svg">
<path d="M18.3336 10.0827C18.3336 11.731 17.8449 13.3422 16.9292 14.7127C16.0134 16.0831 14.7119 17.1513 13.1891 17.782C11.6663 18.4128 9.9907 18.5778 8.37413 18.2563C6.75755 17.9347 5.27263 17.141 4.10714 15.9755C2.94166 14.81 2.14795 13.3251 1.82639 11.7085C1.50484 10.092 1.66987 8.41633 2.30063 6.89355C2.93138 5.37076 3.99953 4.06922 5.37 3.1535C6.74047 2.23779 8.3517 1.74902 9.99995 1.74902C11.0943 1.74902 12.178 1.96458 13.1891 2.38339C14.2002 2.80219 15.1189 3.41605 15.8928 4.1899C16.6666 4.96376 17.2805 5.88246 17.6993 6.89355C18.1181 7.90463 18.3336 8.98831 18.3336 10.0827ZM12.4084 9.63955V9.4185H9.75784C9.68403 9.41795 9.6134 9.38838 9.56121 9.33619C9.50901 9.28399 9.47945 9.21336 9.4789 9.13955V6.5006H6.37258C6.28426 6.5006 6.19955 6.53561 6.137 6.59796C6.07445 6.66031 6.03917 6.74492 6.0389 6.83323V14.8459C6.03917 14.9342 6.07445 15.0188 6.137 15.0811C6.19955 15.1435 6.28426 15.1785 6.37258 15.1785H12.0757C12.1639 15.1782 12.2483 15.1431 12.3106 15.0808C12.373 15.0184 12.4081 14.934 12.4084 14.8459V9.63955ZM7.58942 5.66692H10.3631C10.5634 5.6803 10.7522 5.76552 10.8947 5.90692L11.0294 6.04166V4.95008H7.92205C7.83364 4.95035 7.74893 4.9856 7.68641 5.04812C7.62389 5.11063 7.58865 5.19535 7.58837 5.28376L7.58942 5.66692ZM10.2894 6.51639V8.61113H12.3947L10.2894 6.51639ZM11.8389 7.05955H13.9452L11.8399 4.96692L11.8389 7.05955ZM13.9589 8.08902V7.86797H12.8673L13.001 8.00166C13.1384 8.13782 13.224 8.3176 13.2431 8.51008V13.629H13.6263C13.7146 13.6287 13.7992 13.5935 13.8615 13.5309C13.9239 13.4684 13.9589 13.3837 13.9589 13.2953V8.08902Z" fill="#44ADFE"/>
</svg>
