<svg width="300" height="55" viewBox="0 0 300 55" fill="none" xmlns="http://www.w3.org/2000/svg">
<path d="M17.7503 2.17243C14.4782 4.06165 11.8189 5.79234 3.13421 6.11589C0.218869 6.22447 0 8.93886 0 8.93886L0.0722268 34.8993C0.0722268 34.8993 0.218869 41.1858 5.71467 44.2672C8.72413 45.9522 14.4694 49.7828 17.3935 51.6069C20.2739 53.4005 21.9504 54.1649 23.6335 54.0498V0.000922506C22.0139 -0.0294786 20.3067 0.691463 17.7503 2.17243Z" fill="#2B4661"/>
<path d="M26.6182 11.9746H17.6445V40.6385H26.6182V11.9746Z" fill="#152A43"/>
<path d="M29.526 2.17243C32.809 4.06382 35.4661 5.79451 44.1421 6.11807C47.0596 6.22664 47.2763 8.94103 47.2763 8.94103L47.2019 34.9014C47.2019 34.9014 47.0596 41.188 41.5594 44.2693C38.55 45.9544 32.8047 49.785 29.8806 51.609C27.0025 53.4027 25.3237 54.1671 23.6406 54.052V0.000922506C25.2603 -0.0294786 26.9696 0.691463 29.526 2.17243Z" fill="#152A43"/>
<path opacity="0.1" fill-rule="evenodd" clip-rule="evenodd" d="M11.793 38.3012V18.2668C11.793 18.2668 12.257 15.8782 14.1195 15.2267C15.9821 14.5753 21.78 11.5352 21.78 11.5352C21.3551 12.1698 21.1192 12.9103 21.0993 13.6719C21.0993 14.8771 21.1234 43.667 21.1234 43.667C21.1234 43.667 21.3422 44.6789 21.9988 45.187L13.9007 41.2783C13.9007 41.2783 11.793 40.4292 11.793 38.3012Z" fill="black"/>
<path fill-rule="evenodd" clip-rule="evenodd" d="M20.6424 9.37755C21.2066 9.03168 21.7913 8.71986 22.3934 8.4438C22.7557 8.32215 23.1413 8.28434 23.5207 8.33327C23.9 8.38219 24.2631 8.51657 24.5821 8.7261C25.4422 9.25378 35.9633 14.372 35.9633 14.372C35.9633 14.372 37.9331 15.2406 37.9331 17.4121C37.9331 20.0657 37.9331 36.1436 37.9331 36.1436C37.9331 36.1436 37.9331 37.39 36.1821 38.2586C34.847 38.9209 24.8009 43.6874 24.8009 43.6874C24.8009 43.6874 22.8311 44.556 21.7368 43.9045C20.5001 43.1706 18.2349 41.0816 18.2349 41.0816L17.7971 40.4301L20.2047 39.3444L28.7406 35.2185C29.3972 34.7842 29.7999 33.9156 29.8349 33.0644C29.9071 31.629 29.8349 19.5836 29.8349 19.5836C29.8349 19.5836 29.5657 17.6771 28.3028 16.9778C26.6066 16.0397 17.3594 12.2005 17.3594 12.2005L20.6424 9.37755Z" fill="#119BB9"/>
<path fill-rule="evenodd" clip-rule="evenodd" d="M10.6878 36.3087V16.1462C10.6878 16.1462 10.609 14.1788 13.0144 13.0865C14.8157 12.2679 20.6748 9.37109 20.6748 9.37109C20.2486 10.0123 20.0127 10.7595 19.9941 11.5274C19.9941 12.7413 20.0182 41.618 20.0182 41.618C20.0182 41.618 20.0182 42.378 20.8302 43.2466L12.7955 39.3032C12.7955 39.3032 10.6878 38.4519 10.6878 36.3087Z" fill="white"/>
<path d="M51.322 16.3516H68.7293C70.3933 16.3516 71.6567 16.9835 72.5194 18.2472C73.3821 19.511 73.8126 21.311 73.8108 23.6472V30.2415C73.8108 32.5885 73.3803 34.3885 72.5194 35.6414C71.6585 36.8944 70.3952 37.5263 68.7293 37.5371H51.322C50.7318 37.5371 50.434 37.1119 50.434 36.267V17.6217C50.4205 16.774 50.7183 16.3516 51.322 16.3516ZM67.6843 21.3128H54.3568V32.565H67.6708C69.1381 32.565 69.8718 31.526 69.8718 29.448V24.4271C69.8718 22.3509 69.1381 21.3128 67.6708 21.3128H67.6843Z" fill="#152A43"/>
<path d="M82.1502 26.6097H95.7556C96.8199 26.6097 97.352 25.8637 97.352 24.3717V17.6223C97.352 16.7742 97.6558 16.3516 98.2579 16.3516H100.467C101.071 16.3516 101.373 16.7751 101.373 17.6223V25.2495C101.373 27.2654 100.989 28.8234 100.219 29.9234C99.4492 31.0235 98.3371 31.5735 96.8825 31.5735H90.9608V36.2664C90.9608 37.1117 90.657 37.5371 90.0522 37.5371H87.8426C87.2377 37.5371 86.9367 37.1117 86.9367 36.2664V31.5735H81.0261C79.5733 31.5735 78.4612 31.0235 77.6897 29.9234C76.9182 28.8234 76.5333 27.2654 76.5352 25.2495V17.6223C76.5352 16.7751 76.8371 16.3516 77.4411 16.3516H79.6507C80.2546 16.3516 80.5566 16.7751 80.5566 17.6223V24.3717C80.5529 25.8655 81.0841 26.6115 82.1502 26.6097Z" fill="#152A43"/>
<path d="M105.244 18.0006C106.001 16.9012 107.095 16.3516 108.526 16.3516H123.057C124.486 16.3516 125.58 16.9012 126.339 18.0006C127.098 19.0999 127.477 20.6614 127.475 22.685V36.2672C127.475 37.112 127.176 37.5371 126.584 37.5371H124.41C123.815 37.5371 123.519 37.112 123.519 36.2672V23.5488C123.519 22.0577 122.994 21.3122 121.946 21.3122H109.629C108.583 21.3122 108.059 22.0577 108.059 23.5488V36.2536C108.059 37.0985 107.76 37.5236 107.165 37.5236H104.992C104.397 37.5236 104.098 37.0985 104.098 36.2536V22.685C104.103 20.6614 104.485 19.0999 105.244 18.0006Z" fill="#152A43"/>
<path d="M135.83 32.5701H152.668C153.272 32.5701 153.576 32.9931 153.576 33.8417V36.2655C153.576 37.1115 153.272 37.5371 152.668 37.5371H134.703C133.247 37.5371 132.132 36.9867 131.359 35.886C130.586 34.7852 130.199 33.2254 130.199 31.2064V22.6796C130.199 20.6624 130.585 19.1035 131.356 18.0027C132.128 16.9019 133.242 16.3516 134.7 16.3516H152.666C153.269 16.3516 153.574 16.7745 153.574 17.6231V20.047C153.574 20.8929 153.269 21.3185 152.666 21.3185H135.83C134.761 21.3185 134.227 22.065 134.227 23.558V24.6181H150.504C151.11 24.6181 151.412 25.0438 151.412 25.8897V28.0099C151.412 28.8576 151.109 29.2814 150.504 29.2814H134.227V30.3415C134.227 31.8273 134.761 32.5701 135.83 32.5701Z" fill="#152A43"/>
<path d="M168.463 21.3133H161.821C160.775 21.3133 160.252 22.0588 160.252 23.5498V36.2537C160.252 37.0985 159.953 37.5236 159.359 37.5236H157.187C156.593 37.5236 156.297 37.0985 156.297 36.2537V22.6861C156.297 20.6716 156.675 19.1148 157.431 18.0155C158.188 16.9162 159.281 16.3666 160.71 16.3666H168.224C169.035 16.3432 169.833 16.5764 170.504 17.0327C171.173 17.5264 171.691 18.1969 171.999 18.9686C172.297 18.1882 172.816 17.5109 173.492 17.0191C174.167 16.5635 174.968 16.3305 175.783 16.3531H183.296C184.724 16.3531 185.817 16.9027 186.575 18.002C187.334 19.1012 187.712 20.6626 187.71 22.6861V36.2673C187.71 37.112 187.414 37.5371 186.82 37.5371H184.648C184.054 37.5371 183.758 37.112 183.758 36.2673V23.5498C183.758 22.0588 183.234 21.3133 182.186 21.3133H175.55C174.502 21.3133 173.978 22.0588 173.978 23.5498V36.2537C173.978 37.0985 173.682 37.5236 173.088 37.5236H170.916C170.322 37.5236 170.023 37.0985 170.023 36.2537V23.5498C170.029 22.0588 169.508 21.3133 168.463 21.3133Z" fill="#152A43"/>
<path d="M191.579 18.0006C192.331 16.9012 193.42 16.3516 194.846 16.3516H209.417C210.839 16.3516 211.928 16.9012 212.681 18.0006C213.435 19.0999 213.813 20.6614 213.815 22.685V36.2672C213.815 37.112 213.517 37.5371 212.925 37.5371H210.761C210.169 37.5371 209.874 37.112 209.874 36.2672V31.5638H194.378V36.2536C194.378 37.0985 194.084 37.5236 193.491 37.5236H191.327C190.735 37.5236 190.438 37.0985 190.438 36.2536V22.685C190.443 20.6614 190.823 19.0999 191.579 18.0006ZM208.316 21.3122H195.944C194.9 21.3122 194.378 22.0577 194.378 23.5488V26.6032H209.877V23.5488C209.877 22.0577 209.356 21.3122 208.316 21.3122Z" fill="#152A43"/>
<path d="M228.9 37.5371H226.804C226.23 37.5371 225.942 37.1117 225.942 36.2664V21.3154H217.399C216.825 21.3154 216.539 20.89 216.539 20.0446V17.6223C216.539 16.7751 216.826 16.3516 217.399 16.3516H238.326C238.899 16.3516 239.186 16.7751 239.186 17.6223V20.0446C239.186 20.89 238.9 21.3154 238.326 21.3154H229.757V36.2664C229.757 37.1117 229.474 37.5371 228.9 37.5371Z" fill="#152A43"/>
<path d="M244.949 37.529H242.794C242.206 37.529 241.91 37.1038 241.91 36.2588V17.6226C241.91 16.7748 242.206 16.3523 242.794 16.3523H260.067C260.707 16.3418 261.344 16.4388 261.953 16.6394C262.494 16.8214 262.98 17.1393 263.364 17.563C263.784 18.0468 264.087 18.6214 264.251 19.2422C264.469 20.065 264.572 20.9148 264.555 21.7663V23.2289C264.555 24.621 264.369 25.7106 263.997 26.4978C263.67 27.2386 263.091 27.8385 262.365 28.1906C263.094 28.5469 263.673 29.1528 263.997 29.8995C264.369 30.6958 264.555 31.7791 264.555 33.1496V36.2669C264.555 37.1119 264.261 37.5371 263.671 37.5371H261.516C260.926 37.5371 260.633 37.1119 260.633 36.2669V33.0521C260.633 32.245 260.475 31.6446 260.159 31.251C259.995 31.0543 259.788 30.8985 259.554 30.796C259.321 30.6935 259.066 30.6472 258.812 30.6606H245.835V36.2588C245.832 37.1038 245.539 37.529 244.949 37.529ZM259.418 21.314H245.832V25.6989H259.418C260.235 25.6989 260.643 25.1951 260.641 24.1876V22.8334C260.641 21.8205 260.233 21.314 259.418 21.314Z" fill="#152A43"/>
<path d="M270.677 37.5371H268.269C267.609 37.5371 267.281 37.1117 267.281 36.2664V17.6223C267.281 16.7751 267.61 16.3516 268.269 16.3516H270.677C271.337 16.3516 271.667 16.7751 271.664 17.6223V36.2664C271.664 37.1117 271.336 37.5371 270.677 37.5371Z" fill="#152A43"/>
<path d="M279.759 36.7551C279.564 36.999 279.325 37.2046 279.056 37.3615C278.78 37.4759 278.482 37.5276 278.184 37.5131H274.892C274.831 37.5135 274.771 37.5001 274.716 37.4738C274.662 37.4476 274.613 37.4092 274.575 37.3615C274.488 37.2518 274.431 37.1212 274.409 36.9825C274.379 36.8223 274.379 36.658 274.409 36.4979C274.433 36.3335 274.506 36.1805 274.618 36.0593L282.821 26.8686L274.744 17.8051C274.635 17.6883 274.562 17.5413 274.535 17.3828C274.505 17.2281 274.505 17.0691 274.535 16.9144C274.559 16.7712 274.616 16.6357 274.701 16.5192C274.737 16.468 274.785 16.4263 274.84 16.3976C274.895 16.3688 274.956 16.3539 275.018 16.3541H278.436C278.734 16.3392 279.031 16.391 279.306 16.5057C279.575 16.6616 279.813 16.8662 280.009 17.1093L286.134 24.1858L292.26 17.1093C292.456 16.8668 292.694 16.6623 292.963 16.5057C293.239 16.3913 293.537 16.3395 293.835 16.3541H297.127C297.189 16.3539 297.251 16.3688 297.306 16.3976C297.361 16.4263 297.408 16.468 297.444 16.5192C297.53 16.6357 297.587 16.7712 297.61 16.9144C297.64 17.0691 297.64 17.2281 297.61 17.3828C297.584 17.5413 297.511 17.6883 297.401 17.8051L289.351 26.8767L297.532 36.081C297.645 36.2021 297.718 36.3552 297.742 36.5195C297.771 36.6797 297.771 36.844 297.742 37.0041C297.72 37.1428 297.662 37.2734 297.575 37.3831C297.537 37.4308 297.489 37.4693 297.434 37.4955C297.379 37.5218 297.319 37.5352 297.259 37.5347H293.84C293.542 37.5493 293.245 37.4975 292.968 37.3831C292.699 37.2262 292.461 37.0207 292.265 36.7767L286.014 29.5811L279.759 36.7551Z" fill="#152A43"/>
</svg>
