<svg width="16" height="16" viewBox="0 0 16 16" fill="none" xmlns="http://www.w3.org/2000/svg">
<path d="M1.79996 1.34361C1.43746 1.45299 1.22809 1.86549 1.35621 2.22174C1.37808 2.28111 2.43121 3.81236 3.69683 5.62174L5.99996 8.90924V11.5561V14.203L6.07183 14.3249C6.22496 14.5905 6.55308 14.7374 6.83433 14.6592C6.90621 14.6405 7.59996 14.2249 8.38121 13.7374C9.55621 13.003 9.81246 12.8311 9.89058 12.7217L9.98433 12.5874L9.99371 10.7499L9.99996 8.90924L12.3125 5.60611C13.8656 3.38736 14.6375 2.26236 14.6593 2.17486C14.7406 1.86861 14.5937 1.54361 14.2968 1.38111C14.2093 1.33111 13.7125 1.32799 8.04683 1.32174C4.65934 1.31861 1.84996 1.32799 1.79996 1.34361ZM12.6562 2.70611C12.6562 2.71549 11.7875 3.96236 10.7281 5.47799C9.66558 6.99361 8.76558 8.29674 8.72809 8.37174L8.65621 8.50924V10.2311L8.65308 11.953L8.02496 12.3436C7.67808 12.5592 7.38433 12.7405 7.36871 12.7436C7.35621 12.7499 7.34371 11.7999 7.34371 10.6342V8.50924L7.27183 8.37174C7.23433 8.29674 6.33433 6.99361 5.27183 5.47799C4.21246 3.95924 3.34371 2.71236 3.34371 2.70299C3.34371 2.69361 5.43746 2.68736 7.99996 2.68736C10.5625 2.68736 12.6562 2.69674 12.6562 2.70611Z" fill="black"/>
</svg>
