<svg width="20" height="20" viewBox="0 0 20 20" fill="none" xmlns="http://www.w3.org/2000/svg">
    <path d="M18.3336 10.0876C18.3336 11.7358 17.8449 13.3471 16.9292 14.7175C16.0134 16.088 14.7119 17.1562 13.1891 17.7869C11.6663 18.4177 9.9907 18.5827 8.37413 18.2611C6.75755 17.9396 5.27263 17.1459 4.10714 15.9804C2.94166 14.8149 2.14795 13.33 1.82639 11.7134C1.50484 10.0968 1.66987 8.42121 2.30063 6.89843C2.93138 5.37565 3.99953 4.0741 5.37 3.15839C6.74047 2.24267 8.3517 1.75391 9.99995 1.75391C11.0943 1.75391 12.178 1.96946 13.1891 2.38827C14.2002 2.80708 15.1189 3.42093 15.8928 4.19479C16.6666 4.96864 17.2805 5.88734 17.6993 6.89843C18.1181 7.90952 18.3336 8.9932 18.3336 10.0876ZM15.3999 10.1507C15.3994 9.21454 15.1529 8.2949 14.685 7.48396C14.2172 6.67301 13.5445 5.99921 12.7344 5.53006C11.9242 5.0609 11.005 4.81286 10.0688 4.81076C9.13254 4.80866 8.21222 5.05259 7.39995 5.51812C6.9069 5.8023 6.46207 6.16292 6.08205 6.58654V5.86338C6.08205 5.75283 6.03814 5.6468 5.95996 5.56863C5.88179 5.49046 5.77576 5.44654 5.66521 5.44654C5.55466 5.44654 5.44863 5.49046 5.37046 5.56863C5.29229 5.6468 5.24837 5.75283 5.24837 5.86338V7.61075C5.24865 7.72112 5.29269 7.82687 5.37083 7.90482C5.44897 7.98277 5.55484 8.02654 5.66521 8.02654H7.41047C7.51727 8.02117 7.61791 7.97496 7.6916 7.89748C7.76528 7.81999 7.80638 7.71715 7.80638 7.61022C7.80638 7.50329 7.76528 7.40045 7.6916 7.32297C7.61791 7.24548 7.51727 7.19928 7.41047 7.19391H6.65574C7.07852 6.70634 7.60124 6.31543 8.18844 6.04771C8.77563 5.77999 9.41355 5.64174 10.0589 5.64233C10.9503 5.64254 11.8216 5.90704 12.5627 6.40239C13.3037 6.89775 13.8813 7.60172 14.2223 8.42529C14.5633 9.24886 14.6525 10.1551 14.4786 11.0293C14.3046 11.9035 13.8753 12.7066 13.245 13.3369C12.6147 13.9672 11.8117 14.3965 10.9374 14.5704C10.0632 14.7444 9.157 14.6552 8.33343 14.3142C7.50986 13.9731 6.8059 13.3956 6.31054 12.6545C5.81519 11.9134 5.55068 11.0421 5.55047 10.1507C5.55047 10.0402 5.50656 9.93417 5.42838 9.856C5.35021 9.77782 5.24419 9.73391 5.13363 9.73391C5.02308 9.73391 4.91705 9.77782 4.83888 9.856C4.76071 9.93417 4.71679 10.0402 4.71679 10.1507C4.71679 10.8523 4.85497 11.5469 5.12343 12.1951C5.3919 12.8432 5.7854 13.4321 6.28146 13.9282C6.77752 14.4242 7.36643 14.8177 8.01456 15.0862C8.66269 15.3547 9.35736 15.4929 10.0589 15.4929C10.7604 15.4929 11.4551 15.3547 12.1032 15.0862C12.7514 14.8177 13.3403 14.4242 13.8363 13.9282C14.3324 13.4321 14.7259 12.8432 14.9944 12.1951C15.2628 11.5469 15.3999 10.8523 15.3999 10.1507ZM10.3863 10.0465V7.23391C10.3809 7.12711 10.3347 7.02647 10.2572 6.95278C10.1797 6.8791 10.0769 6.83801 9.96995 6.83801C9.86302 6.83801 9.76018 6.8791 9.68269 6.95278C9.60521 7.02647 9.559 7.12711 9.55363 7.23391V10.2244C9.5535 10.288 9.56795 10.3508 9.59587 10.4079C9.62379 10.465 9.66444 10.515 9.71469 10.5539L11.3326 12.1707C11.3711 12.2101 11.4171 12.2414 11.4679 12.2629C11.5186 12.2844 11.5731 12.2955 11.6282 12.2958C11.6833 12.2961 11.7379 12.2855 11.7888 12.2645C11.8398 12.2435 11.8861 12.2127 11.925 12.1737C11.964 12.1348 11.9949 12.0885 12.0158 12.0375C12.0368 11.9866 12.0474 11.932 12.0471 11.8769C12.0469 11.8218 12.0357 11.7673 12.0142 11.7166C11.9927 11.6658 11.9614 11.6198 11.9221 11.5813L10.3863 10.0465Z" fill="black"/>
</svg>
