<svg width="48" height="48" viewBox="0 0 48 48" fill="none" xmlns="http://www.w3.org/2000/svg">
<g clip-path="url(#clip0_13334_64803)">
<path d="M1.07813 0.159764C0.665625 0.375389 0.384375 0.656639 0.178125 1.05039C0.009375 1.37851 0 1.65976 0 5.98164V10.566L0.215625 10.9785C0.3375 11.2035 0.61875 11.5129 0.834375 11.6723L1.2375 11.9535L5.89688 11.9816L10.5563 12.0098L10.9688 11.7848C11.2313 11.6535 11.5031 11.4004 11.7 11.1191L12 10.6691V6.01914V1.37851L11.7563 0.966014C11.6156 0.722264 11.3344 0.431639 11.0813 0.272264L10.65 0.000388955H6.00938C1.95938 0.00976396 1.32188 0.028514 1.07813 0.159764Z" fill="#152A43"/>
<path d="M19.0781 0.159764C18.6656 0.375389 18.3844 0.656639 18.1781 1.05039C18.0094 1.37851 18 1.65976 18 5.98164V10.566L18.2156 10.9785C18.3375 11.2035 18.6188 11.5129 18.8344 11.6723L19.2375 11.9535L23.8969 11.9816L28.5563 12.0098L28.9688 11.7848C29.2313 11.6535 29.5031 11.4004 29.7 11.1191L30 10.6691V6.01914V1.37851L29.7563 0.966014C29.6156 0.722264 29.3344 0.431639 29.0813 0.272264L28.65 0.000388955H24.0094C19.9594 0.00976396 19.3219 0.028514 19.0781 0.159764Z" fill="#152A43"/>
<path d="M37.0781 0.159764C36.6656 0.375389 36.3844 0.656639 36.1781 1.05039C36.0094 1.37851 36 1.65976 36 5.98164V10.566L36.2156 10.9785C36.3375 11.2035 36.6188 11.5129 36.8344 11.6723L37.2375 11.9535L41.8969 11.9816L46.5563 12.0098L46.9688 11.7848C47.2313 11.6535 47.5031 11.4004 47.7 11.1191L48 10.6691V6.01914V1.37851L47.7563 0.966014C47.6156 0.722264 47.3344 0.431639 47.0813 0.272264L46.65 0.000388955H42.0094C37.9594 0.00976396 37.3219 0.028514 37.0781 0.159764Z" fill="#152A43"/>
<path d="M1.07813 18.1598C0.665625 18.3754 0.384375 18.6566 0.178125 19.0504C0.009375 19.3785 0 19.6598 0 23.9816V28.566L0.215625 28.9785C0.3375 29.2035 0.61875 29.5129 0.834375 29.6723L1.2375 29.9535L5.89688 29.9816L10.5563 30.0098L10.9688 29.7848C11.2313 29.6535 11.5031 29.4004 11.7 29.1191L12 28.6691V24.0191V19.3785L11.7563 18.966C11.6156 18.7223 11.3344 18.4316 11.0813 18.2723L10.65 18.0004H6.00938C1.95938 18.0098 1.32188 18.0285 1.07813 18.1598Z" fill="#152A43"/>
<path d="M19.0781 18.1598C18.6656 18.3754 18.3844 18.6566 18.1781 19.0504C18.0094 19.3785 18 19.6598 18 23.9816V28.566L18.2156 28.9785C18.3375 29.2035 18.6188 29.5129 18.8344 29.6723L19.2375 29.9535L23.8969 29.9816L28.5563 30.0098L28.9688 29.7848C29.2313 29.6535 29.5031 29.4004 29.7 29.1191L30 28.6691V24.0191V19.3785L29.7563 18.966C29.6156 18.7223 29.3344 18.4316 29.0813 18.2723L28.65 18.0004H24.0094C19.9594 18.0098 19.3219 18.0285 19.0781 18.1598Z" fill="#152A43"/>
<path d="M37.0781 18.1598C36.6656 18.3754 36.3844 18.6566 36.1781 19.0504C36.0094 19.3785 36 19.6598 36 23.9816V28.566L36.2156 28.9785C36.3375 29.2035 36.6188 29.5129 36.8344 29.6723L37.2375 29.9535L41.8969 29.9816L46.5563 30.0098L46.9688 29.7848C47.2313 29.6535 47.5031 29.4004 47.7 29.1191L48 28.6691V24.0191V19.3785L47.7563 18.966C47.6156 18.7223 47.3344 18.4316 47.0813 18.2723L46.65 18.0004H42.0094C37.9594 18.0098 37.3219 18.0285 37.0781 18.1598Z" fill="#152A43"/>
<path d="M1.07813 36.1598C0.665625 36.3754 0.384375 36.6566 0.178125 37.0504C0.009375 37.3785 0 37.6598 0 41.9816V46.566L0.215625 46.9785C0.3375 47.2035 0.61875 47.5129 0.834375 47.6723L1.2375 47.9535L5.89688 47.9816L10.5563 48.0098L10.9688 47.7848C11.2313 47.6535 11.5031 47.4004 11.7 47.1191L12 46.6691V42.0191V37.3785L11.7563 36.966C11.6156 36.7223 11.3344 36.4316 11.0813 36.2723L10.65 36.0004H6.00938C1.95938 36.0098 1.32188 36.0285 1.07813 36.1598Z" fill="#152A43"/>
<path d="M19.0781 36.1598C18.6656 36.3754 18.3844 36.6566 18.1781 37.0504C18.0094 37.3785 18 37.6598 18 41.9816V46.566L18.2156 46.9785C18.3375 47.2035 18.6188 47.5129 18.8344 47.6723L19.2375 47.9535L23.8969 47.9816L28.5563 48.0098L28.9688 47.7848C29.2313 47.6535 29.5031 47.4004 29.7 47.1191L30 46.6691V42.0191V37.3785L29.7563 36.966C29.6156 36.7223 29.3344 36.4316 29.0813 36.2723L28.65 36.0004H24.0094C19.9594 36.0098 19.3219 36.0285 19.0781 36.1598Z" fill="#152A43"/>
<path d="M37.0781 36.1598C36.6656 36.3754 36.3844 36.6566 36.1781 37.0504C36.0094 37.3785 36 37.6598 36 41.9816V46.566L36.2156 46.9785C36.3375 47.2035 36.6188 47.5129 36.8344 47.6723L37.2375 47.9535L41.8969 47.9816L46.5563 48.0098L46.9688 47.7848C47.2313 47.6535 47.5031 47.4004 47.7 47.1191L48 46.6691V42.0191V37.3785L47.7563 36.966C47.6156 36.7223 47.3344 36.4316 47.0813 36.2723L46.65 36.0004H42.0094C37.9594 36.0098 37.3219 36.0285 37.0781 36.1598Z" fill="#152A43"/>
</g>
<defs>
<clipPath id="clip0_13334_64803">
<rect width="48" height="48" fill="white"/>
</clipPath>
</defs>
</svg>
