<svg width="20" height="20" viewBox="0 0 20 20" fill="none" xmlns="http://www.w3.org/2000/svg">
<rect x="2" y="2" width="16" height="16" rx="8" fill="#152A43"/>
<path fill-rule="evenodd" clip-rule="evenodd" d="M8.8947 13.1775C9.54975 13.6687 10.4503 13.6687 11.1052 13.1775L14.6841 10.4933C15.033 10.2317 15.1037 9.73687 14.842 9.38803C14.5804 9.0392 14.0856 8.96856 13.7368 9.23014L10.1578 11.9143C10.0644 11.9845 9.93564 11.9845 9.84206 11.9143L6.26319 9.23014C5.91438 8.96856 5.41954 9.0392 5.15794 9.38803C4.89634 9.73687 4.96702 10.2317 5.31583 10.4933L8.8947 13.1775ZM9.52628 9.44067C9.80701 9.65119 10.193 9.65119 10.4736 9.44067L12.5789 7.86173C12.9277 7.60016 12.9985 7.10532 12.7368 6.75648C12.4752 6.40764 11.9804 6.33701 11.6315 6.59859L9.99996 7.82226L8.36839 6.59859C8.01966 6.33701 7.52479 6.40764 7.26318 6.75648C7.00158 7.10532 7.07227 7.60016 7.42107 7.86173L9.52628 9.44067Z" fill="white"/>
</svg>
