<svg width="18" height="18" viewBox="0 0 18 18" fill="none" xmlns="http://www.w3.org/2000/svg">
<path d="M8.50236 1.33505C8.31782 1.43039 8.15789 1.618 8.1056 1.79947C8.08715 1.87328 8.07484 3.00511 8.07484 5.11807V8.32595H4.87004C2.754 8.32595 1.62217 8.33825 1.54836 8.35671C1.09316 8.48281 0.862491 9.05488 1.08701 9.49777C1.17928 9.68231 1.36689 9.84224 1.54836 9.89452C1.62217 9.91298 2.754 9.92528 4.87004 9.92528H8.07484V13.1301C8.07484 15.2461 8.08715 16.378 8.1056 16.4518C8.2317 16.907 8.80377 17.1376 9.24666 16.9131C9.4312 16.8208 9.59113 16.6332 9.64341 16.4518C9.66187 16.378 9.67417 15.2461 9.67417 13.1301V9.92528H12.8821C14.995 9.92528 16.1268 9.91298 16.2007 9.89452C16.3821 9.84224 16.5697 9.68231 16.6651 9.49777C16.8865 9.05488 16.6559 8.48281 16.2007 8.35671C16.1268 8.33825 14.995 8.32595 12.8821 8.32595H9.67417V5.11807C9.67417 3.00511 9.66187 1.87328 9.64341 1.79947C9.55422 1.4796 9.23128 1.252 8.87451 1.252C8.7115 1.252 8.63461 1.27046 8.50236 1.33505Z" fill="white"/>
</svg>
