<svg width="20" height="20" viewBox="0 0 20 20" fill="none" xmlns="http://www.w3.org/2000/svg">
<path d="M18 10C18 11.5822 17.5308 13.129 16.6518 14.4446C15.7727 15.7602 14.5233 16.7855 13.0615 17.391C11.5997 17.9965 9.99113 18.155 8.43928 17.8463C6.88743 17.5376 5.46197 16.7757 4.34315 15.6569C3.22433 14.538 2.4624 13.1126 2.15372 11.5607C1.84504 10.0089 2.00347 8.40034 2.60897 6.93853C3.21447 5.47672 4.23985 4.22729 5.55544 3.34824C6.87103 2.46919 8.41775 2 10 2C11.0506 2 12.0909 2.20693 13.0615 2.60896C14.0321 3.011 14.914 3.60028 15.6569 4.34315C16.3997 5.08601 16.989 5.96793 17.391 6.93853C17.7931 7.90914 18 8.94942 18 10ZM14.8877 7.9861L13.4003 7.81028L11.8997 7.63244L10.6396 4.90009C10.291 4.14526 9.72212 4.14526 9.3735 4.90009L8.11343 7.63244L6.61286 7.81028L5.12644 7.9861C4.30087 8.08412 4.12505 8.62574 4.73538 9.1906L5.83479 10.2071L6.9443 11.2328L6.64924 12.7152L6.35721 14.1834C6.19553 14.9989 6.65631 15.3333 7.38184 14.9281L10.0071 13.4579L12.6323 14.9281C13.3568 15.3333 13.8176 14.9989 13.6559 14.1834L13.0699 11.2328L14.1784 10.2071L15.2788 9.1906C15.8891 8.62574 15.7133 8.08412 14.8877 7.9861Z" fill="#32288B"/>
</svg>
