<svg width="20" height="20" viewBox="0 0 20 20" fill="none" xmlns="http://www.w3.org/2000/svg">
<path d="M10.002 2C7.88039 2.00222 5.84635 2.84599 4.34616 4.34617C2.84599 5.84633 2.00222 7.88039 2 10.002C2.00266 12.123 2.8467 14.1564 4.34689 15.6558C5.84708 17.1553 7.88089 17.9984 10.002 18C12.1228 17.9978 14.1561 17.1543 15.6558 15.6546C17.1554 14.155 17.9989 12.1216 18.0011 10.0008C17.9986 7.87995 17.1551 5.84661 15.6555 4.34675C14.156 2.8469 12.1228 2.00295 10.002 2ZM12.8237 12.5574L10.3146 14.2293L10.3118 14.2321C10.2204 14.2943 10.1124 14.3274 10.002 14.327C9.8914 14.3278 9.78327 14.2947 9.69214 14.2321L9.6447 14.1986L7.1802 12.5574C7.05705 12.4756 6.97143 12.3482 6.94212 12.2032C6.91281 12.0583 6.94223 11.9076 7.0239 11.7843C7.1064 11.6611 7.23426 11.5755 7.37964 11.5462C7.525 11.5169 7.67605 11.5464 7.79981 11.628L9.44374 12.7249V6.23292C9.44349 6.15954 9.45775 6.08683 9.48572 6.01898C9.51366 5.95113 9.55477 5.88951 9.60665 5.83762C9.65854 5.78573 9.72019 5.74462 9.78802 5.71666C9.85587 5.68872 9.92858 5.67446 10.002 5.67471C10.15 5.67471 10.292 5.73351 10.3967 5.83821C10.5014 5.94287 10.5602 6.08485 10.5602 6.23292V12.7249L12.2041 11.628C12.3274 11.5464 12.478 11.5169 12.623 11.5462C12.7679 11.5756 12.8953 11.6612 12.9772 11.7843C13.0592 11.9073 13.089 12.0577 13.0602 12.2026C13.0314 12.3475 12.9464 12.4751 12.8237 12.5574Z" fill="#152A43"/>
</svg>
