<svg width="20" height="20" viewBox="0 0 20 20" fill="none" xmlns="http://www.w3.org/2000/svg">
<path d="M10 18C14.4183 18 18 14.4183 18 10C18 5.58172 14.4183 2 10 2C5.58172 2 2 5.58172 2 10C2 14.4183 5.58172 18 10 18Z" fill="#1C274C"/>
<path d="M6.30215 10.4449L5.85298 10.8426C5.9612 10.9649 6.11455 11.0377 6.27766 11.0443C6.44078 11.051 6.59956 10.991 6.7174 10.8779L6.30215 10.4449ZM8.01534 9.63351C8.25454 9.40415 8.26254 9.02431 8.0332 8.78511C7.80386 8.54599 7.42406 8.53799 7.18486 8.76727L8.01534 9.63351ZM5.64929 8.80263C5.42959 8.55455 5.05039 8.53151 4.80232 8.75119C4.55424 8.97087 4.53123 9.35007 4.75092 9.59815L5.64929 8.80263ZM12.3455 7.60783C12.5705 7.85109 12.9501 7.86586 13.1933 7.64083C13.4366 7.41581 13.4514 7.0362 13.2263 6.79295L12.3455 7.60783ZM10.0351 5.40039C7.64652 5.40039 5.70215 7.32279 5.70215 9.70407H6.90215C6.90215 7.9944 8.30035 6.60039 10.0351 6.60039V5.40039ZM5.70215 9.70407V10.4449H6.90215V9.70407H5.70215ZM6.7174 10.8779L8.01534 9.63351L7.18486 8.76727L5.88691 10.0118L6.7174 10.8779ZM6.75134 10.047L5.64929 8.80263L4.75092 9.59815L5.85298 10.8426L6.75134 10.047ZM13.2263 6.79295C12.4346 5.93711 11.2971 5.40039 10.0351 5.40039V6.60039C10.9504 6.60039 11.7724 6.98842 12.3455 7.60783L13.2263 6.79295Z" fill="white"/>
<path d="M13.6951 9.55507L14.1437 9.15659C14.0353 9.03459 13.8819 8.96203 13.7189 8.95555C13.5559 8.94907 13.3972 9.00931 13.2795 9.12235L13.6951 9.55507ZM11.9845 10.3661C11.7455 10.5956 11.7379 10.9755 11.9674 11.2144C12.1969 11.4535 12.5767 11.4612 12.8157 11.2316L11.9845 10.3661ZM14.3515 11.1974C14.5716 11.4451 14.9509 11.4675 15.1986 11.2474C15.4463 11.0273 15.4687 10.6481 15.2487 10.4004L14.3515 11.1974ZM7.6376 12.4034C7.41084 12.1618 7.03113 12.1497 6.7895 12.3765C6.54788 12.6032 6.53583 12.983 6.7626 13.2246L7.6376 12.4034ZM9.94794 14.5996C12.3422 14.5996 14.2951 12.6793 14.2951 10.2959H13.0951C13.0951 12.0034 11.6927 13.3996 9.94794 13.3996V14.5996ZM14.2951 10.2959V9.55507H13.0951V10.2959H14.2951ZM13.2795 9.12235L11.9845 10.3661L12.8157 11.2316L14.1107 9.98787L13.2795 9.12235ZM13.2466 9.95363L14.3515 11.1974L15.2487 10.4004L14.1437 9.15659L13.2466 9.95363ZM6.7626 13.2246C7.55644 14.0704 8.6909 14.5996 9.94794 14.5996V13.3996C9.0337 13.3996 8.21247 13.016 7.6376 12.4034L6.7626 13.2246Z" fill="white"/>
</svg>
