<svg width="18" height="18" viewBox="0 0 18 18" fill="none" xmlns="http://www.w3.org/2000/svg">
<path d="M5.18414 16.3483C5.28579 16.6039 5.46136 16.798 5.69855 16.9243C5.88337 17.0198 6.35466 17.0259 6.54564 16.9366C6.72737 16.8504 13.8275 9.75332 13.9261 9.55926C13.9877 9.43913 14 9.37136 14 9.12494C14 8.87851 13.9877 8.81075 13.9261 8.69061C13.8275 8.49655 6.72737 1.39951 6.54564 1.31326C6.35466 1.22393 5.88337 1.23009 5.69855 1.32558C5.51373 1.42107 5.32275 1.61205 5.23342 1.78763L5.15949 1.9324L5.15333 9.09414C5.15025 14.534 5.15641 16.2774 5.18414 16.3483Z" fill="#152a43"/>
</svg>
