<svg width="32" height="25" viewBox="0 0 32 25" fill="none" xmlns="http://www.w3.org/2000/svg">
<path fill-rule="evenodd" clip-rule="evenodd" d="M16.8802 16.7726L9.43828 24.2144C8.98161 24.6711 8.2412 24.6711 7.78453 24.2144L0.342655 16.7726C-0.114015 16.3159 -0.114015 15.5755 0.342655 15.1188C0.799326 14.6621 1.53974 14.6621 1.99641 15.1188L7.44203 20.5644L7.44203 0L9.78078 0V20.5644L15.2264 15.1188C15.6831 14.6621 16.4235 14.6621 16.8802 15.1188C17.3368 15.5755 17.3368 16.3159 16.8802 16.7726Z" fill="#4D4D4D"/>
<line x1="19.2383" y1="3.40039" x2="31.9968" y2="3.40039" stroke="#4D4D4D"/>
<line x1="19.2383" y1="9.24805" x2="29.8704" y2="9.24805" stroke="#4D4D4D"/>
<line x1="19.2383" y1="15.0957" x2="27.7439" y2="15.0957" stroke="#4D4D4D"/>
<line x1="19.2383" y1="20.9434" x2="25.6175" y2="20.9434" stroke="#4D4D4D"/>
</svg>
