<svg width="18" height="18" viewBox="0 0 18 18" fill="none" xmlns="http://www.w3.org/2000/svg">
<path d="M7.87508 6.18758C7.73258 6.18758 7.59008 6.13508 7.47758 6.02258L6.00008 4.54508L4.52258 6.02258C4.30508 6.24008 3.94508 6.24008 3.72758 6.02258C3.51008 5.80508 3.51008 5.44508 3.72758 5.22758L5.60258 3.35258C5.82008 3.13508 6.18008 3.13508 6.39758 3.35258L8.27258 5.22758C8.49008 5.44508 8.49008 5.80508 8.27258 6.02258C8.16008 6.13508 8.01758 6.18758 7.87508 6.18758Z" fill="#A4A4A4"/>
<path d="M6 14.8125C5.6925 14.8125 5.4375 14.5575 5.4375 14.25V3.75C5.4375 3.4425 5.6925 3.1875 6 3.1875C6.3075 3.1875 6.5625 3.4425 6.5625 3.75V14.25C6.5625 14.5575 6.3075 14.8125 6 14.8125Z" fill="#A4A4A4"/>
<path d="M12.0001 14.8126C11.8576 14.8126 11.7151 14.7601 11.6026 14.6476L9.72758 12.7726C9.51008 12.5551 9.51008 12.1951 9.72758 11.9776C9.94508 11.7601 10.3051 11.7601 10.5226 11.9776L12.0001 13.4551L13.4776 11.9776C13.6951 11.7601 14.0551 11.7601 14.2726 11.9776C14.4901 12.1951 14.4901 12.5551 14.2726 12.7726L12.3976 14.6476C12.2851 14.7601 12.1426 14.8126 12.0001 14.8126Z" fill="#A4A4A4"/>
<path d="M12 14.8125C11.6925 14.8125 11.4375 14.5575 11.4375 14.25V3.75C11.4375 3.4425 11.6925 3.1875 12 3.1875C12.3075 3.1875 12.5625 3.4425 12.5625 3.75V14.25C12.5625 14.5575 12.3075 14.8125 12 14.8125Z" fill="#A4A4A4"/>
</svg>
