<svg width="18" height="18" viewBox="0 0 18 18" fill="none" xmlns="http://www.w3.org/2000/svg">
<path d="M5.29463 2.10857C5.26034 2.07416 5.21959 2.04685 5.17472 2.02822C5.12985 2.00959 5.08174 2 5.03316 2C4.98457 2 4.93647 2.00959 4.8916 2.02822C4.84673 2.04685 4.80598 2.07416 4.77168 2.10857L2.81277 4.0561L2.11448 3.37565C2.08019 3.34124 2.03944 3.31393 1.99457 3.2953C1.9497 3.27667 1.90159 3.26708 1.85301 3.26708C1.80442 3.26708 1.75632 3.27667 1.71145 3.2953C1.66658 3.31393 1.62583 3.34124 1.59153 3.37565L1.10857 3.85922C1.07416 3.89352 1.04685 3.93427 1.02822 3.97914C1.00959 4.02401 1 4.07211 1 4.1207C1 4.16928 1.00959 4.21739 1.02822 4.26226C1.04685 4.30713 1.07416 4.34788 1.10857 4.38217L2.57252 5.84028C2.6456 5.90974 2.74256 5.94847 2.84338 5.94847C2.9442 5.94847 3.04117 5.90974 3.11424 5.84028L3.59381 5.35978L5.81481 3.13909C5.88401 3.06984 5.92311 2.97609 5.92363 2.87819C5.92415 2.78028 5.88604 2.68613 5.81758 2.61614L5.29463 2.10857ZM5.29463 7.00554C5.26034 6.97112 5.21959 6.94382 5.17472 6.92519C5.12985 6.90655 5.08174 6.89696 5.03316 6.89696C4.98457 6.89696 4.93647 6.90655 4.8916 6.92519C4.84673 6.94382 4.80598 6.97112 4.77168 7.00554L2.81277 8.96568L2.11448 8.28584C2.08019 8.25143 2.03944 8.22412 1.99457 8.20549C1.9497 8.18686 1.90159 8.17727 1.85301 8.17727C1.80442 8.17727 1.75632 8.18686 1.71145 8.20549C1.66658 8.22412 1.62583 8.25143 1.59153 8.28584L1.10857 8.76849C1.07416 8.80279 1.04685 8.84354 1.02822 8.88841C1.00959 8.93328 1 8.98138 1 9.02997C1 9.07855 1.00959 9.12666 1.02822 9.17153C1.04685 9.2164 1.07416 9.25715 1.10857 9.29144L2.56883 10.7526C2.64185 10.8221 2.73877 10.8608 2.83954 10.8608C2.9403 10.8608 3.03722 10.8221 3.11024 10.7526L3.5932 10.27L5.8142 8.04836C5.88313 7.97959 5.9221 7.88636 5.92262 7.78899C5.92314 7.69162 5.88517 7.59799 5.81697 7.52849L5.29463 7.00554ZM2.96874 12.3369C2.15386 12.3369 1.47402 12.9982 1.47402 13.8134C1.47402 14.6286 2.15447 15.29 2.96874 15.29C3.36034 15.29 3.73591 15.1344 4.01282 14.8575C4.28973 14.5806 4.4453 14.205 4.4453 13.8134C4.4453 13.4218 4.28973 13.0462 4.01282 12.7693C3.73591 12.4924 3.36034 12.3369 2.96874 12.3369ZM16.2578 12.829H7.39843C7.26789 12.829 7.1427 12.8809 7.0504 12.9732C6.9581 13.0655 6.90624 13.1907 6.90624 13.3212V14.3056C6.90624 14.4361 6.9581 14.5613 7.0504 14.6536C7.1427 14.7459 7.26789 14.7978 7.39843 14.7978H16.2578C16.3883 14.7978 16.5135 14.7459 16.6058 14.6536C16.6981 14.5613 16.75 14.4361 16.75 14.3056V13.3212C16.75 13.1907 16.6981 13.0655 16.6058 12.9732C16.5135 12.8809 16.3883 12.829 16.2578 12.829ZM16.2578 2.98528H7.39843C7.26789 2.98528 7.1427 3.03714 7.0504 3.12944C6.9581 3.22174 6.90624 3.34693 6.90624 3.47747V4.46185C6.90624 4.59238 6.9581 4.71757 7.0504 4.80988C7.1427 4.90218 7.26789 4.95403 7.39843 4.95403H16.2578C16.3883 4.95403 16.5135 4.90218 16.6058 4.80988C16.6981 4.71757 16.75 4.59238 16.75 4.46185V3.47747C16.75 3.34693 16.6981 3.22174 16.6058 3.12944C16.5135 3.03714 16.3883 2.98528 16.2578 2.98528ZM16.2578 7.90716H7.39843C7.26789 7.90716 7.1427 7.95902 7.0504 8.05132C6.9581 8.14362 6.90624 8.26882 6.90624 8.39935V9.38373C6.90624 9.51426 6.9581 9.63945 7.0504 9.73176C7.1427 9.82406 7.26789 9.87592 7.39843 9.87592H16.2578C16.3883 9.87592 16.5135 9.82406 16.6058 9.73176C16.6981 9.63945 16.75 9.51426 16.75 9.38373V8.39935C16.75 8.26882 16.6981 8.14362 16.6058 8.05132C16.5135 7.95902 16.3883 7.90716 16.2578 7.90716Z" fill="#E9E9E9"/>
</svg>
