<svg width="20" height="20" viewBox="0 0 20 20" fill="none" xmlns="http://www.w3.org/2000/svg">
<rect x="2" y="2" width="16" height="16" rx="8" fill="#92D050"/>
<path d="M8.99999 5.42859C8.99999 5.25185 8.89154 5.09324 8.7268 5.02917C8.56209 4.9651 8.37493 5.00871 8.25551 5.139L5.11266 8.56756C4.99781 8.69284 4.96785 8.87416 5.03629 9.02971C5.10473 9.18531 5.25862 9.28571 5.42858 9.28571H14.5714C14.8081 9.28571 15 9.09382 15 8.85714C15 8.62046 14.8081 8.42858 14.5714 8.42858H8.99999V5.42859Z" fill="white"/>
<path d="M11 14.572V11.572H5.42857C5.19187 11.572 5 11.3801 5 11.1434C5 10.9067 5.19187 10.7148 5.42857 10.7148H14.5714C14.7413 10.7148 14.8953 10.8153 14.9637 10.9708C15.0321 11.1264 15.0022 11.3078 14.8873 11.433L11.7445 14.8616C11.6251 14.9919 11.4379 15.0355 11.2732 14.9714C11.1085 14.9073 11 14.7487 11 14.572Z" fill="white"/>
</svg>
